<svg xmlns="http://www.w3.org/2000/svg" viewBox="0 0 58.92 34.37"><path fill="#fff" d="M0 0h58.92v34.37H0z"/><path fill="#bd0034" d="M39.46 12.43l19.46-10.9V0h-1.34l-22.2 12.43zM38.53 22.64l20.39 11.4v-2.28l-16.31-9.12zM0 2.62l17.44 9.81h4.08L0 .33zM20.6 22.64L0 34.17v.2h3.72l20.95-11.73z"/><path fill="#1a237b" d="M54.89 0H34.26v11.56zM25.15 0H4.6l20.55 11.56zM58.92 12.43V4.54l-13.99 7.89zM58.92 30.44v-7.8H44.93zM5.77 34.37h19.38V23.51zM34.26 34.37h19.45L34.26 23.51zM0 22.64v8.15l14.48-8.15zM0 12.43h14.48L0 4.26z"/><path fill="#bd0034" d="M26.97 0v14.47H0v6.13h26.97v13.77h5.47V20.6h26.49v-6.13H32.44V0z"/></svg>